<?xml version="1.0" encoding="utf-8"?>
<svg x="0px" y="0px" width="1024px" height="1024px" viewBox="0 0 1024 1024" xmlns="http://www.w3.org/2000/svg" xmlns:xlink="http://www.w3.org/1999/xlink">
  <!--Generated by AMDN-->
  <g id="Layer_2">
    <path id="Rectangle" style="fill:#F59E0B;fill-opacity:1;fill-rule:nonzero;opacity:1;stroke:none;" d="M202.636,856.759 C202.636,861.177,199.054,864.759,194.636,864.759 C194.636,864.759,60.6356,864.759,60.6356,864.759 C56.2173,864.759,52.6356,861.177,52.6356,856.759 C52.6356,856.759,52.6356,132.759,52.6356,132.759 C52.6356,128.34,56.2173,124.759,60.6356,124.759 C60.6356,124.759,194.636,124.759,194.636,124.759 C199.054,124.759,202.636,128.34,202.636,132.759 C202.636,132.759,202.636,856.759,202.636,856.759 z"/>
    <path id="Compound_Group" style="fill:#F59E0B;fill-opacity:1;fill-rule:evenodd;opacity:1;stroke:none;" d="M379.855,494.756 C384.166,494.758,387.705,491.343,387.854,487.035 C389.809,430.666,412.755,378.696,452.161,339.189 C493.356,297.889,548.346,274.794,607.763,274.759 C667.184,274.724,722.086,297.891,763.282,339.195 C785.039,361.01,801.779,386.612,812.737,414.67 C813.935,417.739,816.893,419.759,820.188,419.759 C820.188,419.759,960.146,419.759,960.146,419.759 C965.302,419.759,969.111,414.953,967.935,409.934 C952.281,343.11,918.307,282.186,869.401,233.182 C800.359,164.003,707.323,124.793,607.674,124.759 C508.053,124.818,415.058,164.023,346.036,233.182 C278.943,300.409,239.954,390.07,237.812,486.539 C237.712,491.024,241.321,494.715,245.808,494.716 C245.808,494.716,379.855,494.756,379.855,494.756 z M395.249,569.759 C398.544,569.759,401.502,571.778,402.7,574.847 C413.658,602.905,430.398,628.507,452.155,650.322 C493.46,691.518,548.341,714.723,607.674,714.759 C667.096,714.723,721.978,691.518,763.282,650.322 C802.685,610.815,825.629,558.887,827.583,502.523 C827.732,498.216,831.268,494.802,835.577,494.801 C835.577,494.801,969.634,494.761,969.634,494.761 C974.119,494.76,977.73,498.445,977.635,502.929 C975.602,599.458,936.56,689.31,869.296,756.441 C800.173,825.426,707.334,864.699,607.674,864.759 C508.053,864.818,415.059,825.494,346.036,756.335 C297.13,707.332,263.156,646.407,247.502,579.584 C246.326,574.564,250.136,569.759,255.291,569.759 C255.291,569.759,395.249,569.759,395.249,569.759 z"/>
    <path id="Path" style="fill:#F59E0B;fill-opacity:1;fill-rule:evenodd;opacity:1;stroke:#F59E0B;stroke-linecap:butt;stroke-linejoin:miter;stroke-miterlimit:10;stroke-opacity:1;stroke-width:75;" d="M250.45,457.5 C250.45,457.5,406.528,457.259,460.592,457.5 C536.376,457.838,678.581,531.808,754.413,532.075 C806.606,532.259,963.719,532.075,963.719,532.075"/>
    <path id="Path-1" style="fill:#F59E0B;fill-opacity:1;fill-rule:nonzero;opacity:1;stroke:#F59E0B;stroke-linecap:butt;stroke-linejoin:miter;stroke-miterlimit:10;stroke-opacity:1;stroke-width:75;" d="M448.442,471.93"/>
  </g>
</svg>
