<?xml version="1.0" encoding="utf-8"?>
<svg x="0px" y="0px" width="1024px" height="1024px" viewBox="0 0 1024 1024" xmlns="http://www.w3.org/2000/svg" xmlns:xlink="http://www.w3.org/1999/xlink">
  <!--Generated by AMDN-->
  <g id="Layer_2">
    <path id="Rectangle" style="fill:#F59E0B;fill-opacity:1;fill-rule:nonzero;opacity:1;stroke:none;" d="M202.636,856.759 C202.636,861.177,199.054,864.759,194.636,864.759 C194.636,864.759,60.6356,864.759,60.6356,864.759 C56.2173,864.759,52.6356,861.177,52.6356,856.759 C52.6356,856.759,52.6356,132.759,52.6356,132.759 C52.6356,128.34,56.2173,124.759,60.6356,124.759 C60.6356,124.759,194.636,124.759,194.636,124.759 C199.054,124.759,202.636,128.34,202.636,132.759 C202.636,132.759,202.636,856.759,202.636,856.759 z"/>
    <path id="Compound_Group" style="fill:#F59E0B;fill-opacity:1;fill-rule:evenodd;opacity:1;stroke:none;" d="M768.852,333.633 C765.803,336.681,765.715,341.598,768.656,344.75 C807.133,385.991,827.655,438.964,827.727,494.764 C827.801,553.097,805.249,608.311,763.259,650.35 C721.267,692.392,666.063,714.832,607.727,714.755 C576.916,714.715,546.977,708.448,519.388,696.356 C516.371,695.034,512.851,695.697,510.521,698.027 C510.521,698.027,411.556,796.992,411.556,796.992 C407.91,800.638,408.614,806.729,412.995,809.447 C471.317,845.63,538.419,864.687,607.653,864.755 C705.389,864.852,798.901,826.791,869.388,756.353 C939.789,685.869,977.824,592.389,977.727,494.681 C977.633,399.702,941.802,308.733,875.103,239.004 C872.001,235.762,866.84,235.704,863.666,238.876 C863.666,238.876,768.852,333.633,768.852,333.633 z M704.933,291.484 C702.603,293.813,699.083,294.477,696.065,293.154 C668.477,281.063,638.537,274.796,607.727,274.755 C549.39,274.832,494.175,297.23,452.195,339.16 C410.202,381.203,387.804,436.419,387.727,494.755 C387.8,550.553,408.295,603.496,446.769,644.733 C449.709,647.883,449.622,652.798,446.576,655.846 C446.576,655.846,351.812,750.667,351.812,750.667 C348.642,753.839,343.483,753.786,340.379,750.548 C273.561,680.854,237.633,589.713,237.727,494.681 C237.824,397.024,275.701,303.606,346.129,233.094 C416.529,162.61,510.092,124.659,607.801,124.755 C677.035,124.824,744.137,143.881,802.458,180.063 C806.839,182.781,807.543,188.873,803.897,192.519 C803.897,192.519,704.933,291.484,704.933,291.484 z"/>
    <path id="Path" style="fill:#F59E0B;fill-opacity:1;fill-rule:evenodd;opacity:1;stroke:#F59E0B;stroke-linecap:butt;stroke-linejoin:miter;stroke-miterlimit:10;stroke-opacity:1;stroke-width:75;" d="M886.7,268.474 C886.7,268.474,776.506,379.009,738.107,417.067 C684.28,470.415,531.422,518.665,477.612,572.097 C440.575,608.874,329.61,720.099,329.61,720.099"/>
    <path id="Path-1" style="fill:#F59E0B;fill-opacity:1;fill-rule:nonzero;opacity:1;stroke:#F59E0B;stroke-linecap:butt;stroke-linejoin:miter;stroke-miterlimit:10;stroke-opacity:1;stroke-width:75;" d="M736.495,398.272"/>
  </g>
</svg>
